<mxfile host="app.diagrams.net" modified="2023-04-21T13:39:39.375Z" agent="Mozilla/5.0 (Windows NT 10.0; Win64; x64) AppleWebKit/537.36 (KHTML, like Gecko) Chrome/112.0.0.0 Safari/537.36" etag="84LEZBUIr-OoQWvborY7" version="21.2.1" type="device">
  <diagram name="Страница 1" id="YZwOGAVUQdZW6lNT9RYR">
    <mxGraphModel dx="989" dy="521" grid="0" gridSize="10" guides="1" tooltips="1" connect="1" arrows="1" fold="1" page="1" pageScale="1" pageWidth="827" pageHeight="1169" math="0" shadow="0">
      <root>
        <mxCell id="0" />
        <mxCell id="1" parent="0" />
        <mxCell id="6gyUK5IcHbz3g7E5zrCo-1" value="Admin" style="shape=umlActor;verticalLabelPosition=bottom;verticalAlign=top;html=1;outlineConnect=0;" parent="1" vertex="1">
          <mxGeometry x="185" y="237" width="30" height="60" as="geometry" />
        </mxCell>
        <mxCell id="6gyUK5IcHbz3g7E5zrCo-2" value="" style="endArrow=none;dashed=1;html=1;dashPattern=1 3;strokeWidth=2;rounded=0;" parent="1" source="6gyUK5IcHbz3g7E5zrCo-3" edge="1">
          <mxGeometry width="50" height="50" relative="1" as="geometry">
            <mxPoint x="199.77999999999997" y="670" as="sourcePoint" />
            <mxPoint x="199.57999999999998" y="320" as="targetPoint" />
          </mxGeometry>
        </mxCell>
        <mxCell id="6gyUK5IcHbz3g7E5zrCo-4" value="" style="endArrow=none;dashed=1;html=1;dashPattern=1 3;strokeWidth=2;rounded=0;entryX=0.5;entryY=1;entryDx=0;entryDy=0;" parent="1" source="6gyUK5IcHbz3g7E5zrCo-5" target="6gyUK5IcHbz3g7E5zrCo-15" edge="1">
          <mxGeometry width="50" height="50" relative="1" as="geometry">
            <mxPoint x="520.2" y="670" as="sourcePoint" />
            <mxPoint x="520" y="320" as="targetPoint" />
          </mxGeometry>
        </mxCell>
        <mxCell id="6gyUK5IcHbz3g7E5zrCo-8" value="" style="endArrow=none;dashed=1;html=1;dashPattern=1 3;strokeWidth=2;rounded=0;" parent="1" target="6gyUK5IcHbz3g7E5zrCo-3" edge="1">
          <mxGeometry width="50" height="50" relative="1" as="geometry">
            <mxPoint x="200" y="640" as="sourcePoint" />
            <mxPoint x="199.57999999999998" y="320" as="targetPoint" />
          </mxGeometry>
        </mxCell>
        <mxCell id="6gyUK5IcHbz3g7E5zrCo-3" value="" style="rounded=0;whiteSpace=wrap;html=1;rotation=90;" parent="1" vertex="1">
          <mxGeometry x="65.7" y="484.3" width="268.62" height="10" as="geometry" />
        </mxCell>
        <mxCell id="6gyUK5IcHbz3g7E5zrCo-9" value="" style="endArrow=none;dashed=1;html=1;dashPattern=1 3;strokeWidth=2;rounded=0;" parent="1" target="6gyUK5IcHbz3g7E5zrCo-5" edge="1">
          <mxGeometry width="50" height="50" relative="1" as="geometry">
            <mxPoint x="520" y="640" as="sourcePoint" />
            <mxPoint x="520" y="320" as="targetPoint" />
          </mxGeometry>
        </mxCell>
        <mxCell id="6gyUK5IcHbz3g7E5zrCo-5" value="" style="rounded=0;whiteSpace=wrap;html=1;rotation=90;" parent="1" vertex="1">
          <mxGeometry x="485" y="445" width="70" height="10" as="geometry" />
        </mxCell>
        <mxCell id="6gyUK5IcHbz3g7E5zrCo-10" value="" style="endArrow=none;dashed=1;html=1;dashPattern=1 3;strokeWidth=2;rounded=0;entryX=0.5;entryY=1;entryDx=0;entryDy=0;" parent="1" source="6gyUK5IcHbz3g7E5zrCo-12" target="6gyUK5IcHbz3g7E5zrCo-14" edge="1">
          <mxGeometry width="50" height="50" relative="1" as="geometry">
            <mxPoint x="360.20000000000005" y="670" as="sourcePoint" />
            <mxPoint x="360" y="320" as="targetPoint" />
          </mxGeometry>
        </mxCell>
        <mxCell id="6gyUK5IcHbz3g7E5zrCo-11" value="" style="endArrow=none;dashed=1;html=1;dashPattern=1 3;strokeWidth=2;rounded=0;" parent="1" target="6gyUK5IcHbz3g7E5zrCo-12" edge="1">
          <mxGeometry width="50" height="50" relative="1" as="geometry">
            <mxPoint x="360" y="640" as="sourcePoint" />
            <mxPoint x="360" y="320" as="targetPoint" />
          </mxGeometry>
        </mxCell>
        <mxCell id="6gyUK5IcHbz3g7E5zrCo-12" value="" style="rounded=0;whiteSpace=wrap;html=1;rotation=90;" parent="1" vertex="1">
          <mxGeometry x="335" y="375" width="50" height="10" as="geometry" />
        </mxCell>
        <mxCell id="6gyUK5IcHbz3g7E5zrCo-14" value="Вікно авторизації" style="rounded=0;whiteSpace=wrap;html=1;" parent="1" vertex="1">
          <mxGeometry x="310" y="260" width="100" height="50" as="geometry" />
        </mxCell>
        <mxCell id="6gyUK5IcHbz3g7E5zrCo-15" value="Меню адміністратора" style="rounded=0;whiteSpace=wrap;html=1;" parent="1" vertex="1">
          <mxGeometry x="470" y="260" width="100" height="50" as="geometry" />
        </mxCell>
        <mxCell id="6gyUK5IcHbz3g7E5zrCo-16" value="" style="endArrow=none;dashed=1;html=1;dashPattern=1 3;strokeWidth=2;rounded=0;entryX=0.5;entryY=1;entryDx=0;entryDy=0;" parent="1" source="6gyUK5IcHbz3g7E5zrCo-18" target="6gyUK5IcHbz3g7E5zrCo-19" edge="1">
          <mxGeometry width="50" height="50" relative="1" as="geometry">
            <mxPoint x="680.2" y="670" as="sourcePoint" />
            <mxPoint x="680" y="320" as="targetPoint" />
          </mxGeometry>
        </mxCell>
        <mxCell id="6gyUK5IcHbz3g7E5zrCo-17" value="" style="endArrow=none;dashed=1;html=1;dashPattern=1 3;strokeWidth=2;rounded=0;" parent="1" target="6gyUK5IcHbz3g7E5zrCo-18" edge="1">
          <mxGeometry width="50" height="50" relative="1" as="geometry">
            <mxPoint x="680" y="640" as="sourcePoint" />
            <mxPoint x="680" y="320" as="targetPoint" />
          </mxGeometry>
        </mxCell>
        <mxCell id="6gyUK5IcHbz3g7E5zrCo-18" value="" style="rounded=0;whiteSpace=wrap;html=1;rotation=90;" parent="1" vertex="1">
          <mxGeometry x="620.21" y="549.66" width="119.57" height="10" as="geometry" />
        </mxCell>
        <mxCell id="6gyUK5IcHbz3g7E5zrCo-19" value="Налаштування товару" style="rounded=0;whiteSpace=wrap;html=1;" parent="1" vertex="1">
          <mxGeometry x="630" y="260" width="100" height="50" as="geometry" />
        </mxCell>
        <mxCell id="6gyUK5IcHbz3g7E5zrCo-20" value="" style="endArrow=classic;html=1;rounded=0;entryX=0.5;entryY=1;entryDx=0;entryDy=0;exitX=0.093;exitY=-0.022;exitDx=0;exitDy=0;exitPerimeter=0;" parent="1" source="6gyUK5IcHbz3g7E5zrCo-3" target="6gyUK5IcHbz3g7E5zrCo-12" edge="1">
          <mxGeometry width="50" height="50" relative="1" as="geometry">
            <mxPoint x="208" y="380" as="sourcePoint" />
            <mxPoint x="350" y="380" as="targetPoint" />
          </mxGeometry>
        </mxCell>
        <mxCell id="6gyUK5IcHbz3g7E5zrCo-30" value="&lt;font style=&quot;font-size: 11px;&quot;&gt;Ввести логін та пароль&lt;/font&gt;" style="edgeLabel;html=1;align=center;verticalAlign=middle;resizable=0;points=[];" parent="6gyUK5IcHbz3g7E5zrCo-20" vertex="1" connectable="0">
          <mxGeometry x="0.0952" relative="1" as="geometry">
            <mxPoint x="-7" as="offset" />
          </mxGeometry>
        </mxCell>
        <mxCell id="6gyUK5IcHbz3g7E5zrCo-31" value="" style="endArrow=classic;html=1;rounded=0;entryX=0.567;entryY=1;entryDx=0;entryDy=0;entryPerimeter=0;exitX=0.428;exitY=-0.01;exitDx=0;exitDy=0;exitPerimeter=0;" parent="1" source="6gyUK5IcHbz3g7E5zrCo-3" edge="1">
          <mxGeometry width="50" height="50" relative="1" as="geometry">
            <mxPoint x="207" y="470" as="sourcePoint" />
            <mxPoint x="515" y="470" as="targetPoint" />
          </mxGeometry>
        </mxCell>
        <mxCell id="6gyUK5IcHbz3g7E5zrCo-34" value="Обрати налаштування товару" style="edgeLabel;html=1;align=center;verticalAlign=middle;resizable=0;points=[];" parent="6gyUK5IcHbz3g7E5zrCo-31" vertex="1" connectable="0">
          <mxGeometry x="-0.0447" y="1" relative="1" as="geometry">
            <mxPoint as="offset" />
          </mxGeometry>
        </mxCell>
        <mxCell id="6gyUK5IcHbz3g7E5zrCo-36" value="" style="endArrow=classic;html=1;rounded=0;exitX=0.614;exitY=-0.05;exitDx=0;exitDy=0;exitPerimeter=0;" parent="1" source="6gyUK5IcHbz3g7E5zrCo-3" edge="1">
          <mxGeometry width="50" height="50" relative="1" as="geometry">
            <mxPoint x="207" y="520" as="sourcePoint" />
            <mxPoint x="675" y="520" as="targetPoint" />
          </mxGeometry>
        </mxCell>
        <mxCell id="6gyUK5IcHbz3g7E5zrCo-37" value="Натиснути на &quot;Список товару&quot;" style="edgeLabel;html=1;align=center;verticalAlign=middle;resizable=0;points=[];" parent="6gyUK5IcHbz3g7E5zrCo-36" vertex="1" connectable="0">
          <mxGeometry x="-0.0447" y="1" relative="1" as="geometry">
            <mxPoint as="offset" />
          </mxGeometry>
        </mxCell>
        <mxCell id="6gyUK5IcHbz3g7E5zrCo-38" value="" style="endArrow=classic;html=1;rounded=0;exitX=0.688;exitY=-0.028;exitDx=0;exitDy=0;exitPerimeter=0;" parent="1" source="6gyUK5IcHbz3g7E5zrCo-3" edge="1">
          <mxGeometry width="50" height="50" relative="1" as="geometry">
            <mxPoint x="208" y="540" as="sourcePoint" />
            <mxPoint x="675" y="540" as="targetPoint" />
          </mxGeometry>
        </mxCell>
        <mxCell id="6gyUK5IcHbz3g7E5zrCo-39" value="Найти та обрати товар" style="edgeLabel;html=1;align=center;verticalAlign=middle;resizable=0;points=[];" parent="6gyUK5IcHbz3g7E5zrCo-38" vertex="1" connectable="0">
          <mxGeometry x="-0.0447" y="1" relative="1" as="geometry">
            <mxPoint as="offset" />
          </mxGeometry>
        </mxCell>
        <mxCell id="6gyUK5IcHbz3g7E5zrCo-40" value="" style="endArrow=classic;html=1;rounded=0;entryX=0.896;entryY=1.019;entryDx=0;entryDy=0;entryPerimeter=0;exitX=0.91;exitY=-0.015;exitDx=0;exitDy=0;exitPerimeter=0;" parent="1" edge="1">
          <mxGeometry width="50" height="50" relative="1" as="geometry">
            <mxPoint x="205.1500000000001" y="558.75" as="sourcePoint" />
            <mxPoint x="674.81" y="558.96" as="targetPoint" />
          </mxGeometry>
        </mxCell>
        <mxCell id="6gyUK5IcHbz3g7E5zrCo-41" value="Натиснути &quot;Редагувати інформацію&quot;" style="edgeLabel;html=1;align=center;verticalAlign=middle;resizable=0;points=[];" parent="6gyUK5IcHbz3g7E5zrCo-40" vertex="1" connectable="0">
          <mxGeometry x="-0.0447" y="1" relative="1" as="geometry">
            <mxPoint as="offset" />
          </mxGeometry>
        </mxCell>
        <mxCell id="6gyUK5IcHbz3g7E5zrCo-42" value="" style="endArrow=classic;html=1;rounded=0;exitX=0.838;exitY=-0.01;exitDx=0;exitDy=0;exitPerimeter=0;" parent="1" source="6gyUK5IcHbz3g7E5zrCo-3" edge="1">
          <mxGeometry width="50" height="50" relative="1" as="geometry">
            <mxPoint x="206" y="580" as="sourcePoint" />
            <mxPoint x="674" y="580" as="targetPoint" />
          </mxGeometry>
        </mxCell>
        <mxCell id="6gyUK5IcHbz3g7E5zrCo-43" value="Змінити інформацію" style="edgeLabel;html=1;align=center;verticalAlign=middle;resizable=0;points=[];" parent="6gyUK5IcHbz3g7E5zrCo-42" vertex="1" connectable="0">
          <mxGeometry x="-0.0447" y="1" relative="1" as="geometry">
            <mxPoint as="offset" />
          </mxGeometry>
        </mxCell>
        <mxCell id="6gyUK5IcHbz3g7E5zrCo-44" value="" style="endArrow=classic;html=1;rounded=0;entryX=0.896;entryY=1.019;entryDx=0;entryDy=0;entryPerimeter=0;exitX=0.91;exitY=-0.015;exitDx=0;exitDy=0;exitPerimeter=0;" parent="1" edge="1">
          <mxGeometry width="50" height="50" relative="1" as="geometry">
            <mxPoint x="205.00000000000009" y="599" as="sourcePoint" />
            <mxPoint x="674.66" y="599.21" as="targetPoint" />
          </mxGeometry>
        </mxCell>
        <mxCell id="6gyUK5IcHbz3g7E5zrCo-46" value="Підтвердити та зберегти інформацію" style="edgeLabel;html=1;align=center;verticalAlign=middle;resizable=0;points=[];" parent="6gyUK5IcHbz3g7E5zrCo-44" vertex="1" connectable="0">
          <mxGeometry x="-0.1015" y="1" relative="1" as="geometry">
            <mxPoint x="11" as="offset" />
          </mxGeometry>
        </mxCell>
        <mxCell id="kOE8ca7kbwpFXHUzJ4_l-1" value="" style="endArrow=none;dashed=1;html=1;rounded=0;exitX=0.5;exitY=0;exitDx=0;exitDy=0;entryX=0.212;entryY=1.004;entryDx=0;entryDy=0;entryPerimeter=0;" edge="1" parent="1" source="6gyUK5IcHbz3g7E5zrCo-12" target="6gyUK5IcHbz3g7E5zrCo-5">
          <mxGeometry width="50" height="50" relative="1" as="geometry">
            <mxPoint x="410" y="480" as="sourcePoint" />
            <mxPoint x="460" y="430" as="targetPoint" />
            <Array as="points">
              <mxPoint x="440" y="380" />
              <mxPoint x="440" y="430" />
            </Array>
          </mxGeometry>
        </mxCell>
        <mxCell id="kOE8ca7kbwpFXHUzJ4_l-2" value="&lt;font style=&quot;font-size: 10px;&quot;&gt;Вхід в меню&lt;/font&gt;" style="edgeLabel;html=1;align=center;verticalAlign=middle;resizable=0;points=[];" vertex="1" connectable="0" parent="kOE8ca7kbwpFXHUzJ4_l-1">
          <mxGeometry x="-0.7514" relative="1" as="geometry">
            <mxPoint x="12" y="-1" as="offset" />
          </mxGeometry>
        </mxCell>
      </root>
    </mxGraphModel>
  </diagram>
</mxfile>
